<svg t="1710757280781" class="icon" viewBox="0 0 1024 1024" version="1.1" xmlns="http://www.w3.org/2000/svg" p-id="5281" width="20" height="20"><path d="M512.853333 955.733333a17.066667 17.066667 0 0 1-17.066666-17.066666v-85.333334a17.066667 17.066667 0 1 1 34.133333 0v85.333334a17.066667 17.066667 0 0 1-17.066667 17.066666z m301.226667-124.586666a17.015467 17.015467 0 0 1-12.066133-5.000534l-60.586667-60.586666a17.0496 17.0496 0 1 1 24.132267-24.132267l60.586666 60.586667A17.0496 17.0496 0 0 1 814.08 831.146667z m-602.453333 0a17.066667 17.066667 0 0 1-11.9808-29.218134l60.586666-59.733333a17.0496 17.0496 0 1 1 23.9616 24.302933l-60.586666 59.733334a17.032533 17.032533 0 0 1-11.9808 4.9152zM938.666667 529.066667h-85.333334a17.066667 17.066667 0 1 1 0-34.133334h85.333334a17.066667 17.066667 0 1 1 0 34.133334z m-768 0H85.333333a17.066667 17.066667 0 1 1 0-34.133334h85.333334a17.066667 17.066667 0 0 1 0 34.133334z m583.68-240.64a17.0496 17.0496 0 0 1-12.066134-29.1328l60.586667-60.586667a17.0496 17.0496 0 1 1 24.132267 24.132267l-60.586667 60.586666a17.015467 17.015467 0 0 1-12.066133 5.000534z m-483.84-0.853334a17.015467 17.015467 0 0 1-12.066134-5.000533l-59.733333-59.733333a17.0496 17.0496 0 1 1 24.132267-24.132267l59.733333 59.733333a17.0496 17.0496 0 0 1-12.066133 29.1328zM512.853333 187.733333a17.066667 17.066667 0 0 1-17.066666-17.066666V85.333333a17.066667 17.066667 0 0 1 34.133333 0v85.333334a17.066667 17.066667 0 0 1-17.066667 17.066666zM512 802.133333c-79.598933 0-148.599467-28.637867-205.056-85.0944S221.866667 591.598933 221.866667 512s28.6208-148.5824 85.0944-205.038933C363.4176 250.487467 432.401067 221.866667 512 221.866667s148.5824 28.6208 205.038933 85.0944C773.495467 363.400533 802.133333 432.401067 802.133333 512s-28.637867 148.5824-85.0944 205.038933S591.598933 802.133333 512 802.133333z m0-512c-61.696 0-112.964267 21.2992-156.7744 65.092267C311.432533 399.035733 290.133333 450.304 290.133333 512c0 61.678933 21.2992 112.964267 65.092267 156.7744S450.304 733.866667 512 733.866667s112.964267-21.2992 156.7744-65.092267S733.866667 573.696 733.866667 512s-21.2992-112.981333-65.092267-156.7744C624.964267 311.432533 573.678933 290.133333 512 290.133333z" p-id="5282" fill="#2c2c2c"></path></svg>