    <svg xmlns="http://www.w3.org/2000/svg" viewBox="0 0 106.03 54">
      <path
        d="M85.79,210.82c-4.38,7.15,21.14-33.61,23.42-41.33,1.06-3.57-19.63,39.39-16.41,46.31.62,1.64,7.54-6,22.41-23.08-2.56,6.65-9.63,13.37-8.12,18.23s11.82-7,13.74-10.91a32.63,32.63,0,0,0,2.59-8.11c2.55-9.09-12.83-14.14-9.39,2.74-.3.7.54,2.41,1.47,4.9s3.56,3.33,5.67,3.22c5.19-1.17,15.36-10.17,15.36-10.17,4.12-2.47,2.45-.26,1.82.5a5.89,5.89,0,0,0-.41.57l-8.72,14.19s-.9.29,19.84-25c4.85-5.92-6.67,13.54-5.66,17s6.87,2.59,15.63-11.77,15.33-11.55,13.92-11.37-14.36,3.79-10.54,19.76c.57,2.26,4.38-9.09,14.76-21.7,1.66-2-7.08,36.29-20.4,44.12-5.33,2.52-13.88,5-5.23-4,12.19-12.64,40.75-14.32,37.53-13.93"
        transform="translate(-84.28 -168.28)"
        style="fill: none;
  stroke: #000;
  stroke-miterlimit: 10;
  stroke-width: 2.5;
  stroke-linecap: round;"
      />
    </svg>